<?xml version="1.0" standalone="no"?>
<svg viewBox="0 0 200 200" xmlns="http://www.w3.org/2000/svg">
  <path fill="#FF0066" d="M39,-63.6C51.5,-60.4,63.2,-51.8,69.5,-40.3C75.7,-28.8,76.6,-14.4,75.3,-0.7C74,12.9,70.6,25.9,65.7,39.7C60.8,53.6,54.5,68.5,43.3,74.1C32.1,79.7,16,76.1,3.8,69.6C-8.5,63.1,-17,53.7,-30.3,49.3C-43.6,44.9,-61.7,45.5,-73.8,38.1C-85.8,30.7,-92,15.3,-86.2,3.3C-80.5,-8.7,-62.9,-17.4,-52.2,-27.3C-41.6,-37.3,-38,-48.4,-30.5,-54.5C-22.9,-60.5,-11.5,-61.6,0.9,-63.1C13.3,-64.7,26.5,-66.8,39,-63.6Z" transform="translate(100 100)" />
</svg>
